<?xml version="1.0" encoding="UTF-8"?>
<svg width="200px" height="150px" viewBox="0 0 200 150" version="1.1" xmlns="http://www.w3.org/2000/svg" xmlns:xlink="http://www.w3.org/1999/xlink">
    <title>Cloud</title>
    <g>
        <path d="M173.5,103.5 C183.717,103.5 192,95.2172 192,85 C192,76.2146 186.047,68.8222 177.891,67.0693 C177.963,66.0493 178,65.0195 178,64 C178,41.9086 160.091,24 138,24 C123.688,24 111.335,32.2915 105.235,44.4097 C100.324,38.8961 93.0897,36 85,36 C70.0883,36 58,48.0883 58,63 C58,63.3366 58.0095,63.6693 58.0276,64 C47.0674,64 38,73.0674 38,84.0276 C38,94.9878 47.0674,104 58.0276,104 L173.5,103.5 Z" id="Cloud" stroke="#FFFFFF" stroke-width="6" fill="#FFFFFF"></path>
        <circle id="Left-Eye" fill="#000000" cx="100" cy="70" r="7"></circle>
        <circle id="Right-Eye" fill="#000000" cx="140" cy="70" r="7"></circle>
        <path d="M110,90 C110,98 120,105 130,98 C140,105 150,98 150,90" id="Smile" stroke="#000000" stroke-width="4" stroke-linecap="round"></path>
    </g>
</svg> 